<svg width="141" height="48" viewBox="0 0 141 48" fill="none" xmlns="http://www.w3.org/2000/svg">
<g clip-path="url(#clip0_869_669)">
<path d="M44.9285 41.9849L25.8602 23C25.8602 23 25.2494 23.7506 24.5 24.5C23.7506 25.2494 23 25.8477 23 25.8477L42.0683 44.8326C44.4709 45.3099 45.2583 44.8862 44.9285 41.9849Z" fill="#FF4C00" stroke="#FF4C00"/>
<path d="M2.7743 23.233C2.7743 23.233 2.24482 22.2145 3.24478 21.2145C4.24476 20.2145 5.23511 20.7752 5.23511 20.7752L14.5173 30.0688C14.5173 30.0688 14.8675 31.2634 14.0804 32.0506C13.0805 33.0506 12.0565 32.5266 12.0565 32.5266L2.7743 23.233Z" fill="#FF4C00"/>
<path d="M7.69772 19.1564C7.69772 19.1564 8.11607 17.3442 12.6865 12.7782C17.2571 8.21213 18.9395 7.92838 18.9395 7.92838L27.3037 16.3028C27.3037 16.3028 26.0718 18.9249 22.4742 22.5191C17.9038 27.085 16.0619 27.5308 16.0619 27.5308L7.69772 19.1564Z" fill="#FF4C00"/>
<path d="M20.7743 6.23304C20.7743 6.23304 20.2448 5.21454 21.2448 4.21454C22.2448 3.21452 23.2351 3.77524 23.2351 3.77524L32.5173 13.0688C32.5173 13.0688 32.8675 14.2634 32.0804 15.0506C31.0805 16.0506 30.0565 15.5266 30.0565 15.5266L20.7743 6.23304Z" fill="#FF4C00"/>
<path d="M65.2475 12.2125C65.1542 12.7842 64.9208 13.3267 64.5475 13.84C64.1858 14.3533 63.8183 14.7325 63.445 14.9775C62.6167 14.3475 61.6542 13.8342 60.5575 13.4375C59.4608 13.0292 58.3525 12.825 57.2325 12.825C55.9842 12.825 54.8525 13.1342 53.8375 13.7525C52.8342 14.3592 52.0408 15.3508 51.4575 16.7275C50.8742 18.1042 50.5825 19.9475 50.5825 22.2575C50.5825 25.3608 51.16 27.6592 52.315 29.1525C53.47 30.6342 55.2025 31.375 57.5125 31.375C58.7492 31.375 59.8925 31.2408 60.9425 30.9725C62.0042 30.6925 62.815 30.4358 63.375 30.2025L65.2825 32.9675C64.5825 33.2358 63.7717 33.4808 62.85 33.7025C61.9283 33.9242 60.9483 34.105 59.91 34.245C58.8833 34.385 57.8625 34.455 56.8475 34.455C54.9692 34.455 53.3825 34.1342 52.0875 33.4925C50.8042 32.8392 49.7658 31.9408 48.9725 30.7975C48.1908 29.6542 47.6192 28.3475 47.2575 26.8775C46.9075 25.4075 46.7325 23.8558 46.7325 22.2225C46.7325 19.9942 47.0242 18.0867 47.6075 16.5C48.1908 14.9017 48.9783 13.6008 49.97 12.5975C50.9733 11.5825 52.0933 10.8358 53.33 10.3575C54.5783 9.87917 55.8617 9.64 57.18 9.64C58.6267 9.64 60.0733 9.87333 61.52 10.34C62.9667 10.8067 64.2092 11.4308 65.2475 12.2125ZM61.73 26.86C61.73 26.0433 61.7475 25.2908 61.7825 24.6025C61.8292 23.9025 61.9225 23.2783 62.0625 22.73L65.2825 23.8325V32.9675L61.73 33.0375V26.86ZM62.64 21.4175C63.62 21.4175 64.3025 21.6333 64.6875 22.065C65.0842 22.485 65.2825 23.0742 65.2825 23.8325V24.62H58.8075C58.5042 24.62 58.2067 24.585 57.915 24.515C57.635 24.4333 57.4075 24.2817 57.2325 24.06C57.0575 23.8267 56.97 23.4825 56.97 23.0275C56.97 22.7592 56.9933 22.485 57.04 22.205C57.0983 21.9133 57.1683 21.6508 57.25 21.4175H62.64ZM74.9277 14.9075C75.2311 14.8492 75.5927 14.8083 76.0127 14.785C76.4327 14.7617 76.8002 14.75 77.1152 14.75C77.3952 14.75 77.7277 14.7617 78.1127 14.785C78.4977 14.8083 78.8477 14.8492 79.1627 14.9075L86.0752 33.825C85.7952 33.965 85.4569 34.07 85.0602 34.14C84.6636 34.21 84.3019 34.245 83.9752 34.245C83.4736 34.245 83.0477 34.1458 82.6977 33.9475C82.3477 33.7375 82.0561 33.2767 81.8227 32.565L78.6202 23.4475C78.4452 22.9458 78.2586 22.3683 78.0602 21.715C77.8619 21.05 77.6636 20.3908 77.4652 19.7375C77.2669 19.0842 77.0919 18.4892 76.9402 17.9525H76.7827C76.5727 18.7108 76.3277 19.5508 76.0477 20.4725C75.7677 21.3942 75.5286 22.1642 75.3302 22.7825L71.3577 34.0175C71.1361 34.0758 70.8852 34.1167 70.6052 34.14C70.3252 34.1633 70.0511 34.175 69.7827 34.175C69.4677 34.175 69.1527 34.1517 68.8377 34.105C68.5344 34.0583 68.2836 34 68.0852 33.93L67.9452 33.7375L74.9277 14.9075ZM74.7177 29.7475C74.6127 29.7475 74.4144 29.7475 74.1227 29.7475C73.8311 29.7358 73.5394 29.73 73.2477 29.73C72.9677 29.7183 72.7694 29.7125 72.6527 29.7125H71.0952L72.2677 26.79H73.6327C73.7494 26.79 73.9302 26.79 74.1752 26.79C74.4319 26.7783 74.6827 26.7725 74.9277 26.7725C75.1844 26.7608 75.3652 26.755 75.4702 26.755H78.4102C78.5269 26.755 78.6961 26.7608 78.9177 26.7725C79.1394 26.7725 79.3611 26.7783 79.5827 26.79C79.8044 26.79 79.9736 26.79 80.0902 26.79H81.5427L82.6277 29.7125H81.0002C80.8952 29.7125 80.7086 29.7183 80.4402 29.73C80.1719 29.73 79.8977 29.7358 79.6177 29.7475C79.3494 29.7475 79.1686 29.7475 79.0752 29.7475H74.7177ZM99.3878 14.9075C99.6561 14.8375 99.907 14.7967 100.14 14.785C100.385 14.7617 100.619 14.75 100.84 14.75C101.085 14.75 101.365 14.7675 101.68 14.8025C102.007 14.8258 102.322 14.8842 102.625 14.9775L102.783 15.205L96.6228 34.0175C96.2261 34.0758 95.7711 34.1108 95.2578 34.1225C94.7445 34.1458 94.2545 34.1575 93.7878 34.1575C93.1811 34.1575 92.662 34.0583 92.2303 33.86C91.8103 33.6617 91.4895 33.2067 91.2678 32.495L85.6853 15.1525C86.012 15.0008 86.3561 14.8842 86.7178 14.8025C87.0911 14.7208 87.4703 14.68 87.8553 14.68C88.357 14.68 88.7711 14.8025 89.0978 15.0475C89.4245 15.2925 89.6928 15.7533 89.9028 16.43L92.7903 25.39C93.0353 26.1483 93.2861 27 93.5428 27.945C93.8111 28.89 94.0503 29.8175 94.2603 30.7275C94.307 30.9025 94.4003 30.99 94.5403 30.99L99.3878 14.9075ZM106.08 15.0825L106.272 14.9075H109.685V17.865C109.685 18.145 109.69 18.4308 109.702 18.7225C109.714 19.0142 109.72 19.3467 109.72 19.72V29.4675C109.72 29.7708 109.714 30.0567 109.702 30.325C109.69 30.5817 109.685 30.8267 109.685 31.06V34.0175H108.215C107.561 34.0175 107.042 33.825 106.657 33.44C106.272 33.055 106.08 32.5183 106.08 31.83V15.0825ZM117.21 22.835C117.28 23.0683 117.326 23.325 117.35 23.605C117.373 23.885 117.385 24.1183 117.385 24.305C117.385 24.515 117.373 24.76 117.35 25.04C117.326 25.3083 117.28 25.5592 117.21 25.7925H111.697C111.452 25.7925 111.131 25.7925 110.735 25.7925C110.338 25.7925 109.93 25.7925 109.51 25.7925C109.101 25.7808 108.74 25.7692 108.425 25.7575V22.8875C108.74 22.8758 109.101 22.87 109.51 22.87C109.93 22.8583 110.338 22.8525 110.735 22.8525C111.131 22.8408 111.452 22.835 111.697 22.835H117.21ZM118.96 14.9075C119.006 15.1642 119.03 15.415 119.03 15.66C119.041 15.905 119.047 16.1383 119.047 16.36C119.047 16.57 119.03 16.815 118.995 17.095C118.96 17.375 118.89 17.6492 118.785 17.9175H111.697C111.452 17.9175 111.131 17.9175 110.735 17.9175C110.338 17.9175 109.93 17.9117 109.51 17.9C109.101 17.8883 108.74 17.8767 108.425 17.865V14.9075H118.96ZM119.52 30.99C119.52 32.1333 119.339 32.9267 118.977 33.37C118.627 33.8017 118.032 34.0175 117.192 34.0175H108.477V31.13C108.885 31.1067 109.247 31.0833 109.562 31.06C109.889 31.0367 110.221 31.0192 110.56 31.0075C110.91 30.9958 111.324 30.99 111.802 30.99H119.52ZM127.613 34.035H126.056C125.426 34.035 124.912 33.8425 124.516 33.4575C124.131 33.0725 123.938 32.5358 123.938 31.8475V14.96L124.131 14.785H125.566C126.312 14.785 126.837 14.9658 127.141 15.3275C127.456 15.6892 127.613 16.2783 127.613 17.095V34.035ZM136.468 30.92C136.445 32.0867 136.252 32.8975 135.891 33.3525C135.541 33.8075 134.916 34.035 134.018 34.035H126.056L124.621 31.48C125.612 31.2933 126.633 31.1533 127.683 31.06C128.745 30.9667 129.701 30.92 130.553 30.92H136.468Z" fill="#242F29"/>
</g>
<defs>
<clipPath id="clip0_869_669">
<rect width="141" height="48" fill="white"/>
</clipPath>
</defs>
</svg>
