<svg width="48" height="48" viewBox="0 0 48 48" fill="none" xmlns="http://www.w3.org/2000/svg">
<path d="M44.9285 41.9849L25.8602 23C25.8602 23 25.2494 23.7506 24.5 24.5C23.7506 25.2494 23 25.8477 23 25.8477L42.0683 44.8326C44.4709 45.3099 45.2583 44.8862 44.9285 41.9849Z" fill="#242F29" stroke="#242F29"/>
<path d="M2.7743 23.233C2.7743 23.233 2.24482 22.2145 3.24478 21.2145C4.24476 20.2145 5.23511 20.7752 5.23511 20.7752L14.5173 30.0688C14.5173 30.0688 14.8675 31.2634 14.0804 32.0506C13.0805 33.0506 12.0565 32.5266 12.0565 32.5266L2.7743 23.233Z" fill="#242F29"/>
<path d="M7.69772 19.1564C7.69772 19.1564 8.11607 17.3442 12.6865 12.7782C17.2571 8.21213 18.9395 7.92838 18.9395 7.92838L27.3037 16.3028C27.3037 16.3028 26.0718 18.9249 22.4742 22.5191C17.9038 27.085 16.0619 27.5308 16.0619 27.5308L7.69772 19.1564Z" fill="#242F29"/>
<path d="M20.7743 6.23304C20.7743 6.23304 20.2448 5.21454 21.2448 4.21454C22.2448 3.21452 23.2351 3.77524 23.2351 3.77524L32.5173 13.0688C32.5173 13.0688 32.8675 14.2634 32.0804 15.0506C31.0805 16.0506 30.0565 15.5266 30.0565 15.5266L20.7743 6.23304Z" fill="#242F29"/>
</svg>
