<svg width="48" height="48" viewBox="0 0 48 48" fill="none" xmlns="http://www.w3.org/2000/svg">
<g clip-path="url(#clip0_800_547)">
<path d="M41.5409 6.44234C42.153 7.0544 42.4914 7.87118 42.4914 8.73601C42.4914 9.60084 42.1551 10.4176 41.5409 11.0297C40.2771 12.2935 38.2195 12.2935 36.9557 11.0297C36.3436 10.4176 36.0052 9.60501 36.0052 8.73601C36.0052 7.867 36.3415 7.0544 36.9557 6.44234C37.5886 5.80938 38.418 5.49186 39.2494 5.49186C40.0808 5.49186 40.9122 5.80938 41.543 6.44234H41.5409Z" fill="#D64000"/>
<path d="M6.46114 41.5493C5.19732 40.2855 5.19732 38.2279 6.46114 36.9641C7.0732 36.352 7.88581 36.0136 8.75481 36.0136C9.62382 36.0136 10.4364 36.3499 11.0485 36.9641C12.3123 38.2279 12.3123 40.2855 11.0485 41.5493C10.4343 42.1635 9.61964 42.4998 8.75481 42.4998C7.88998 42.4998 7.0732 42.1635 6.46114 41.5493Z" fill="#D64000"/>
<path d="M31.1797 6.6951L31.1568 6.68466C30.4653 6.39429 29.9284 5.85116 29.6423 5.15763C29.3519 4.45783 29.3519 3.68909 29.6423 2.98512C29.9326 2.28532 30.4778 1.7401 31.1776 1.44973C31.5286 1.30351 31.8962 1.23039 32.2639 1.23039C32.6316 1.23039 33.0013 1.30351 33.3502 1.44973C34.7978 2.04926 35.4851 3.71207 34.8855 5.15763C34.286 6.60528 32.6232 7.29254 31.1776 6.69301L31.1797 6.6951Z" fill="#D64000"/>
<path d="M15.7465 41.0876C16.1142 41.0876 16.4819 41.1608 16.8307 41.3028C18.2784 41.9023 18.9656 43.5651 18.3661 45.0107C18.0757 45.7105 17.5305 46.2578 16.8307 46.5461C16.1309 46.8385 15.3601 46.8385 14.6582 46.5461C13.2106 45.9466 12.5233 44.2858 13.1228 42.8382C13.4132 42.1384 13.9584 41.5911 14.6582 41.3028C15.0091 41.1566 15.3768 41.0835 15.7445 41.0835L15.7486 41.0876H15.7465Z" fill="#D64000"/>
<path d="M26.4336 2.43154C26.4336 3.73714 25.4017 4.8046 24.1128 4.86309H24.0021C22.6589 4.86309 21.5705 3.77056 21.5705 2.43154C21.5705 1.09252 22.661 0 24 0C25.339 0 26.4315 1.0967 26.4315 2.43572V2.43154H26.4336Z" fill="#D64000"/>
<path d="M21.5643 45.5685C21.5643 44.2253 22.6568 43.1369 23.9958 43.1369C25.3348 43.1369 26.4274 44.2294 26.4274 45.5685C26.4274 46.9075 25.3348 48 23.9958 48C22.6568 48 21.5643 46.9075 21.5643 45.5685Z" fill="#D64000"/>
<path d="M16.5299 5.94725C16.0286 6.15406 15.4812 6.15406 14.9778 5.94725C14.4744 5.73836 14.0837 5.34772 13.879 4.84846C13.4508 3.81234 13.9417 2.62582 14.9778 2.19758C15.2306 2.09313 15.4917 2.043 15.7507 2.043C16.5487 2.043 17.3028 2.51719 17.6287 3.29637C17.8355 3.79981 17.8355 4.35129 17.6287 4.84846C17.4219 5.3519 17.0333 5.74254 16.5299 5.94725Z" fill="#D64000"/>
<path d="M31.468 42.0527C31.7208 41.9483 31.984 41.894 32.2472 41.894C32.5104 41.894 32.7736 41.9483 33.0222 42.0486C33.5256 42.2575 33.9163 42.6481 34.121 43.1474C34.3278 43.6508 34.3278 44.2023 34.121 44.6995C33.9142 45.2029 33.5256 45.5935 33.0222 45.7982C32.5188 46.003 31.9715 46.003 31.468 45.7982C30.9646 45.5914 30.5739 45.2029 30.3692 44.6995C30.1624 44.196 30.1624 43.6487 30.3692 43.1474C30.576 42.646 30.9646 42.2575 31.468 42.0507V42.0527Z" fill="#D64000"/>
<path d="M9.89747 7.61006C10.5221 8.23466 10.5304 9.23736 9.9288 9.87449L9.89329 9.91C9.26034 10.543 8.2284 10.543 7.59335 9.91C6.9604 9.27705 6.9604 8.2451 7.59335 7.61006C7.91087 7.29254 8.32449 7.13587 8.74228 7.13587C9.16007 7.13587 9.57577 7.29463 9.8912 7.61006H9.89747Z" fill="#D64000"/>
<path d="M38.0858 38.1004C38.3992 37.7829 38.8169 37.6262 39.2326 37.6262C39.6484 37.6262 40.0661 37.785 40.3816 38.1004C40.6886 38.4054 40.8558 38.8128 40.8558 39.2473C40.8558 39.6818 40.6886 40.0891 40.3816 40.3962C39.7486 41.0333 38.7188 41.0292 38.0816 40.3962C37.7746 40.0891 37.6074 39.6776 37.6074 39.2473C37.6074 38.817 37.7746 38.4075 38.0816 38.1004H38.0858Z" fill="#D64000"/>
<path d="M3.30055 17.6182C2.26443 17.19 1.77352 15.9993 2.20176 14.9674C2.40856 14.4639 2.79711 14.0733 3.30055 13.8686C3.55331 13.7662 3.81652 13.714 4.07973 13.714C4.34294 13.714 4.60615 13.7641 4.85473 13.8686C5.89085 14.2968 6.38176 15.4875 5.95352 16.5195C5.74671 17.0229 5.35817 17.4135 4.85473 17.6182C4.35129 17.825 3.79981 17.825 3.30264 17.6182H3.29846H3.30055Z" fill="#D64000"/>
<path d="M44.7078 30.388C45.2113 30.5948 45.6019 30.9834 45.8066 31.4868C46.0113 31.9903 46.0113 32.5376 45.8066 33.0389C45.3784 34.0709 44.1918 34.5659 43.1557 34.1356C42.6523 33.9288 42.2616 33.5403 42.0569 33.0368C41.8501 32.5334 41.8501 31.9861 42.0569 31.4847C42.3807 30.7055 43.1369 30.2334 43.9349 30.2334C44.1918 30.2334 44.455 30.2836 44.7078 30.388Z" fill="#D64000"/>
<path d="M0 24.0125C0 22.6693 1.09252 21.581 2.43154 21.581C3.77056 21.581 4.86309 22.6735 4.86309 24.0125C4.86309 25.3516 3.77056 26.4441 2.43154 26.4441C1.09252 26.4441 0 25.3536 0 24.0125Z" fill="#D64000"/>
<path d="M43.1369 24.0125C43.1369 22.6693 44.2294 21.581 45.5685 21.581C46.9075 21.581 48 22.6735 48 24.0125C48 25.3516 46.9075 26.4441 45.5685 26.4441C44.2294 26.4441 43.1369 25.3516 43.1369 24.0125Z" fill="#D64000"/>
<path d="M1.44137 33.3397C0.841845 31.8921 1.52911 30.2334 2.97676 29.6318C3.67656 29.3415 4.44529 29.3415 5.14927 29.6318C5.84907 29.9222 6.39429 30.4674 6.68465 31.1672C6.97502 31.867 6.97502 32.6378 6.68465 33.3397C6.39429 34.0395 5.84907 34.5847 5.14927 34.8751C4.44947 35.1655 3.68073 35.1655 2.97676 34.8751C2.27696 34.5847 1.73174 34.0395 1.44137 33.3397Z" fill="#D64000"/>
<path d="M41.2924 16.8307C41.0041 16.1309 41.0041 15.3622 41.2924 14.6603C41.5827 13.9605 42.1279 13.4153 42.8277 13.1249C43.1787 12.9766 43.5464 12.9056 43.9077 12.9056C45.0232 12.9056 46.0803 13.5636 46.5336 14.6561C47.1331 16.1038 46.4458 17.7624 44.9982 18.364C44.2984 18.6544 43.5296 18.6544 42.8257 18.364C42.1259 18.0736 41.5806 17.5284 41.2903 16.8286H41.2945L41.2924 16.8307Z" fill="#D64000"/>
<path d="M30.9019 30.9019C30.012 31.7897 30.012 33.2353 30.9019 34.1231C31.7918 35.013 33.2353 35.013 34.1252 34.1231C34.5555 33.6927 34.7936 33.1225 34.7936 32.5146C34.7936 31.9067 34.5555 31.3322 34.1252 30.9061C33.6823 30.4632 33.0995 30.2418 32.5167 30.2418C31.9338 30.2418 31.351 30.4674 30.9082 30.9061L30.9019 30.9019Z" fill="#D64000"/>
<path d="M11.8966 22.6234C10.9336 22.3664 10.3633 21.3763 10.6202 20.4133C10.7477 19.9474 11.0443 19.5589 11.4621 19.3166C11.7378 19.1557 12.047 19.0722 12.3583 19.0722C12.5128 19.0722 12.6716 19.091 12.8262 19.1327C13.292 19.2602 13.6806 19.5568 13.9229 19.9746C14.1631 20.3924 14.2279 20.8812 14.1025 21.3449C13.8456 22.3079 12.8554 22.8803 11.8924 22.6213H11.8966V22.6234Z" fill="#D64000"/>
<path d="M35.1655 28.8589C34.6996 28.7315 34.3111 28.4349 34.0688 28.0171C33.8285 27.5993 33.7638 27.1105 33.8891 26.6467C34.0165 26.1809 34.3132 25.7923 34.731 25.55C35.0088 25.3892 35.32 25.3056 35.6313 25.3056C35.7608 25.3056 35.8903 25.3181 36.0178 25.3474L36.1034 25.3704C37.0664 25.6273 37.6367 26.6216 37.3798 27.5805C37.2523 28.0463 36.9557 28.4349 36.5379 28.6772C36.1201 28.9174 35.6313 28.9842 35.1675 28.8568V28.861L35.1655 28.8589Z" fill="#D64000"/>
<path d="M10.9712 27.4906C10.7707 26.747 11.1905 25.9824 11.9112 25.7422L11.9927 25.7192C12.7614 25.5103 13.5573 25.972 13.7641 26.7428C13.8665 27.1167 13.8143 27.5053 13.6179 27.8416C13.4257 28.1737 13.1103 28.414 12.7405 28.5163C12.3666 28.6187 11.9802 28.5665 11.6417 28.3701C11.3096 28.1779 11.0694 27.8625 10.967 27.4927L10.9712 27.4886V27.4906Z" fill="#D64000"/>
<path d="M34.9043 22.145L34.8417 22.1074C34.5409 21.911 34.3257 21.6165 34.2338 21.2676C34.027 20.4947 34.4845 19.703 35.2574 19.4941C36.024 19.2873 36.822 19.7469 37.0288 20.5177C37.2356 21.2864 36.7781 22.0823 36.0052 22.2891C35.6313 22.3915 35.2449 22.3372 34.9064 22.1429V22.1471L34.9043 22.145Z" fill="#D64000"/>
<path d="M16.2897 33.2227L16.2479 33.2645C15.8238 33.6886 15.1324 33.6886 14.7083 33.2645C14.2843 32.8405 14.2843 32.1532 14.7083 31.7291C15.1324 31.3051 15.8238 31.3051 16.2479 31.7291C16.4547 31.9359 16.5675 32.2075 16.5675 32.4979C16.5675 32.7694 16.4693 33.0243 16.2897 33.2227Z" fill="#D64000"/>
<path d="M33.277 14.7125C33.4838 14.9193 33.5967 15.1909 33.5967 15.4812C33.5967 15.7716 33.4818 16.0453 33.277 16.25C32.853 16.674 32.1615 16.674 31.7375 16.25C31.5307 16.0411 31.4179 15.7716 31.4179 15.4812C31.4179 15.1909 31.5328 14.9172 31.7375 14.7125C31.9464 14.5057 32.2159 14.3929 32.5062 14.3929C32.7966 14.3929 33.0702 14.5036 33.275 14.7104V14.7146L33.277 14.7125Z" fill="#D64000"/>
<path d="M22.1325 34.9085C22.3247 35.2407 22.3769 35.6334 22.2787 36.0073C22.1763 36.3812 21.9403 36.6904 21.604 36.8847C21.2676 37.0769 20.8791 37.1291 20.5052 37.0309C19.7364 36.8241 19.2769 36.0303 19.4816 35.2595C19.5839 34.8855 19.82 34.5764 20.1563 34.3821C20.4885 34.1899 20.8791 34.1377 21.2551 34.2359C21.629 34.3382 21.9382 34.5743 22.1325 34.9106V34.9064V34.9085Z" fill="#D64000"/>
<path d="M25.8571 13.0998C25.6649 12.7677 25.6127 12.375 25.7109 12.001C25.8132 11.6271 26.0493 11.318 26.3856 11.1237C26.607 10.9963 26.8535 10.9315 27.1042 10.9315C27.2316 10.9315 27.3549 10.9482 27.4802 10.9795C27.8541 11.0819 28.1633 11.318 28.3576 11.6543C28.5497 11.9864 28.602 12.3791 28.5038 12.7531C28.297 13.5218 27.5032 13.9814 26.7324 13.7767C26.3584 13.6743 26.0493 13.4382 25.855 13.1019L25.8571 13.0998Z" fill="#D64000"/>
<path d="M28.0296 34.075L28.1048 34.1189C28.4808 34.3633 28.7503 34.733 28.8673 35.1675C29.1242 36.1306 28.5539 37.1207 27.5909 37.3777C27.123 37.5051 26.6383 37.4382 26.2206 37.198C25.8028 36.9578 25.504 36.5672 25.3787 36.1013C25.2513 35.6355 25.3181 35.1487 25.5584 34.731C25.7986 34.3132 26.1892 34.0144 26.6551 33.8891C26.8138 33.8473 26.9726 33.8285 27.1272 33.8285C27.4405 33.8285 27.7476 33.91 28.0275 34.0729L28.0317 34.0771L28.0296 34.075Z" fill="#D64000"/>
<path d="M21.3491 14.1151C20.3903 14.372 19.398 13.7975 19.139 12.8387C18.8821 11.8757 19.4523 10.8855 20.4153 10.6286C20.5699 10.5868 20.7266 10.568 20.8812 10.568C21.6792 10.568 22.4103 11.1007 22.6255 11.905C22.8824 12.868 22.3121 13.8581 21.3491 14.1151Z" fill="#D64000"/>
<path d="M15.4833 17.7415C16.7388 17.7415 17.7582 16.7242 17.7582 15.4666C17.7582 14.2091 16.7409 13.1917 15.4833 13.1917C14.2258 13.1917 13.2085 14.2091 13.2085 15.4666C13.2085 16.7242 14.2258 17.7415 15.4833 17.7415Z" fill="#D64000"/>
</g>
<defs>
<clipPath id="clip0_800_547">
<rect width="48" height="48" fill="white"/>
</clipPath>
</defs>
</svg>
