<svg width="48" height="48" viewBox="0 0 48 48" fill="none" xmlns="http://www.w3.org/2000/svg">
<g clip-path="url(#clip0_671_533)">
<path fill-rule="evenodd" clip-rule="evenodd" d="M26.3386 47.4097C31.7507 45.9026 35.0323 40.22 33.6314 34.7795L28.3556 14.2775C27.7519 12.0246 24.5508 13.0262 25.1271 15.1769L30.3602 35.5121C31.3009 39.1671 29.0967 42.9849 25.4608 43.9981C21.8261 45.0104 18.0815 42.8496 17.1402 39.195C14.6218 29.4098 12.1033 19.6233 9.58587 9.8398C8.98921 7.52433 10.3763 4.93355 12.6822 4.29115C14.9865 3.64897 17.416 5.17501 18.0126 7.49198C19.9243 14.9192 21.8213 22.2901 23.7332 29.7177C23.9978 30.7459 23.3911 31.8727 22.3674 32.1586C21.3447 32.444 20.2772 31.7822 20.0119 30.7544L16.6135 17.5489C16.0958 15.6169 12.7257 16.2201 13.3271 18.4642L16.7258 31.6699C17.4584 34.5167 20.3731 36.1994 23.2033 35.4105C26.0356 34.6219 27.7515 31.646 27.0193 28.8022L24.6917 19.7562L23.5944 15.4917L21.3206 6.6589C20.2579 2.52875 15.9602 -0.172639 11.8517 0.97268C7.7416 2.11746 5.31656 6.69023 6.38009 10.8216L9.75057 23.9186L13.9571 40.2612C15.3563 45.7015 20.9288 48.9172 26.3386 47.4097Z" fill="black"/>
<g clip-path="url(#clip1_671_533)">
<path d="M37.8117 10.3511C37.6564 11.0765 37.5081 11.9689 37.0516 12.4253C36.5952 12.8814 35.634 13.0995 34.9088 13.2549C35.634 13.4105 36.5952 13.6306 37.0516 14.0874C37.5081 14.5438 37.657 15.4326 37.8124 16.1583C37.9675 15.4326 38.1863 14.5441 38.6429 14.0874C39.099 13.631 39.9901 13.4099 40.7152 13.2543C39.9901 13.0992 39.0992 12.8817 38.6429 12.4253C38.1865 11.9692 37.9669 11.0765 37.8117 10.3511Z" fill="black"/>
</g>
<g clip-path="url(#clip2_671_533)">
<path d="M32.5607 1.60918C32.1983 3.30172 31.8522 5.38403 30.7871 6.44902C29.7222 7.51323 27.4794 8.02221 25.7871 8.38462C27.4794 8.7478 29.7222 9.26143 30.7871 10.3271C31.8522 11.392 32.1998 13.466 32.5622 15.1594C32.9242 13.466 33.4346 11.3928 34.5 10.3271C35.5642 9.26221 37.6435 8.74633 39.3355 8.38324C37.6436 8.02144 35.5649 7.51401 34.5 6.44902C33.4353 5.3848 32.9228 3.30181 32.5607 1.60918Z" fill="black"/>
</g>
</g>
<defs>
<clipPath id="clip0_671_533">
<rect width="48" height="48" fill="white"/>
</clipPath>
<clipPath id="clip1_671_533">
<rect width="6" height="6" fill="white" transform="translate(35 10.1576)"/>
</clipPath>
<clipPath id="clip2_671_533">
<rect width="14" height="14" fill="white" transform="translate(26 1.15756)"/>
</clipPath>
</defs>
</svg>
