<svg width="48" height="48" viewBox="0 0 48 48" fill="none" xmlns="http://www.w3.org/2000/svg">
<path d="M35.0819 12.8847C36.306 14.1088 36.9828 15.7424 36.9828 17.472C36.9828 19.2017 36.3102 20.8352 35.0819 22.0594C32.5543 24.587 28.439 24.587 25.9114 22.0594C24.6873 20.8352 24.0104 19.21 24.0104 17.472C24.0104 15.734 24.6831 14.1088 25.9114 12.8847C27.1773 11.6188 28.8359 10.9837 30.4987 10.9837C32.1615 10.9837 33.8243 11.6188 35.0861 12.8847H35.0819Z" fill="#D64000"/>
<path d="M-35.0777 83.0986C-37.6054 80.571 -37.6054 76.4557 -35.0777 73.9281C-33.8536 72.704 -32.2284 72.0272 -30.4904 72.0272C-28.7524 72.0272 -27.1272 72.6998 -25.903 73.9281C-23.3754 76.4557 -23.3754 80.571 -25.903 83.0986C-27.1313 84.3269 -28.7607 84.9996 -30.4904 84.9996C-32.22 84.9996 -33.8536 84.3269 -35.0777 83.0986Z" fill="#D64000"/>
<path d="M14.3595 13.3902L14.3135 13.3693C12.9306 12.7886 11.8569 11.7023 11.2845 10.3153C10.7038 8.91566 10.7038 7.37819 11.2845 5.97023C11.8653 4.57063 12.9557 3.4802 14.3553 2.89947C15.0572 2.60702 15.7925 2.46079 16.5278 2.46079C17.2631 2.46079 18.0026 2.60702 18.7003 2.89947C21.5956 4.09853 22.9701 7.42415 21.7711 10.3153C20.572 13.2106 17.2464 14.5851 14.3553 13.386L14.3595 13.3902Z" fill="#D64000"/>
<path d="M-16.5069 82.1753C-15.7716 82.1753 -15.0363 82.3215 -14.3386 82.6056C-11.4433 83.8047 -10.0688 87.1303 -11.2678 90.0214C-11.8485 91.421 -12.939 92.5156 -14.3386 93.0922C-15.7382 93.6771 -17.2798 93.6771 -18.6836 93.0922C-21.5789 91.8931 -22.9534 88.5717 -21.7544 85.6764C-21.1736 84.2768 -20.0832 83.1822 -18.6836 82.6056C-17.9817 82.3132 -17.2464 82.1669 -16.5111 82.1669L-16.5027 82.1753H-16.5069Z" fill="#D64000"/>
<path d="M4.86726 4.86309C4.86726 7.47428 2.80338 9.60919 0.225611 9.72617H0.00417997C-2.68222 9.72617 -4.85891 7.54113 -4.85891 4.86309C-4.85891 2.18505 -2.67804 0 3.75968e-06 0C2.67804 0 4.86309 2.1934 4.86309 4.87144V4.86309H4.86726Z" fill="#D64000"/>
<path d="M-4.87145 91.1369C-4.87145 88.4505 -2.68641 86.2738 -0.00836627 86.2738C2.66967 86.2738 4.85472 88.4589 4.85472 91.1369C4.85472 93.8149 2.66967 96 -0.00836627 96C-2.68641 96 -4.87145 93.8149 -4.87145 91.1369Z" fill="#D64000"/>
<path d="M-14.9402 11.8945C-15.9429 12.3081 -17.0375 12.3081 -18.0444 11.8945C-19.0513 11.4767 -19.8325 10.6954 -20.242 9.69693C-21.0984 7.62468 -20.1166 5.25163 -18.0444 4.39516C-17.5389 4.18626 -17.0166 4.08599 -16.4986 4.08599C-14.9026 4.08599 -13.3944 5.03438 -12.7426 6.59274C-12.329 7.59962 -12.329 8.70258 -12.7426 9.69693C-13.1562 10.7038 -13.9333 11.4851 -14.9402 11.8945Z" fill="#D64000"/>
<path d="M14.936 84.1055C15.4416 83.8966 15.968 83.788 16.4944 83.788C17.0208 83.788 17.5472 83.8966 18.0444 84.0971C19.0513 84.5149 19.8325 85.2962 20.242 86.2947C20.6556 87.3016 20.6556 88.4046 20.242 89.3989C19.8284 90.4058 19.0513 91.187 18.0444 91.5965C17.0375 92.0059 15.9429 92.0059 14.936 91.5965C13.9291 91.1829 13.1479 90.4058 12.7385 89.3989C12.3248 88.392 12.3248 87.2974 12.7385 86.2947C13.1521 85.292 13.9291 84.5149 14.936 84.1013V84.1055Z" fill="#D64000"/>
<path d="M-28.2051 15.2201C-26.9559 16.4693 -26.9392 18.4747 -28.1424 19.749L-28.2134 19.82C-29.4793 21.0859 -31.5432 21.0859 -32.8133 19.82C-34.0792 18.5541 -34.0792 16.4902 -32.8133 15.2201C-32.1783 14.5851 -31.351 14.2717 -30.5154 14.2717C-29.6799 14.2717 -28.8485 14.5893 -28.2176 15.2201H-28.2051Z" fill="#D64000"/>
<path d="M28.1716 76.2009C28.7983 75.5658 29.6339 75.2525 30.4653 75.2525C31.2967 75.2525 32.1323 75.57 32.7631 76.2009C33.3773 76.8109 33.7115 77.6255 33.7115 78.4946C33.7115 79.3636 33.3773 80.1783 32.7631 80.7924C31.4972 82.0667 29.4375 82.0583 28.1633 80.7924C27.5491 80.1783 27.2149 79.3552 27.2149 78.4946C27.2149 77.6339 27.5491 76.815 28.1633 76.2009H28.1716Z" fill="#D64000"/>
<path d="M-41.3989 35.2365C-43.4711 34.38 -44.453 31.9986 -43.5965 29.9347C-43.1829 28.9278 -42.4058 28.1466 -41.3989 27.7371C-40.8934 27.5324 -40.367 27.428 -39.8405 27.428C-39.3141 27.428 -38.7877 27.5282 -38.2905 27.7371C-36.2183 28.5936 -35.2365 30.975 -36.093 33.0389C-36.5066 34.0458 -37.2837 34.827 -38.2905 35.2365C-39.2974 35.6501 -40.4004 35.6501 -41.3947 35.2365H-41.4031H-41.3989Z" fill="#D64000"/>
<path d="M41.4156 60.7761C42.4225 61.1897 43.2038 61.9667 43.6132 62.9736C44.0226 63.9805 44.0226 65.0751 43.6132 66.0778C42.7567 68.1417 40.3837 69.1319 38.3114 68.2712C37.3046 67.8576 36.5233 67.0805 36.1139 66.0736C35.7002 65.0668 35.7002 63.9721 36.1139 62.9694C36.7614 61.4111 38.2738 60.4669 39.8698 60.4669C40.3837 60.4669 40.9101 60.5672 41.4156 60.7761Z" fill="#D64000"/>
<path d="M-48 48.0251C-48 45.3387 -45.815 43.162 -43.1369 43.162C-40.4589 43.162 -38.2738 45.347 -38.2738 48.0251C-38.2738 50.7031 -40.4589 52.8882 -43.1369 52.8882C-45.815 52.8882 -48 50.7073 -48 48.0251Z" fill="#D64000"/>
<path d="M38.2738 48.0251C38.2738 45.3387 40.4589 43.162 43.1369 43.162C45.815 43.162 48 45.347 48 48.0251C48 50.7031 45.815 52.8882 43.1369 52.8882C40.4589 52.8882 38.2738 50.7031 38.2738 48.0251Z" fill="#D64000"/>
<path d="M-45.1173 66.6794C-46.3163 63.7841 -44.9418 60.4669 -42.0465 59.2636C-40.6469 58.6829 -39.1094 58.6829 -37.7015 59.2636C-36.3019 59.8444 -35.2114 60.9348 -34.6307 62.3344C-34.05 63.734 -34.05 65.2757 -34.6307 66.6794C-35.2114 68.079 -36.3019 69.1695 -37.7015 69.7502C-39.1011 70.3309 -40.6385 70.3309 -42.0465 69.7502C-43.4461 69.1695 -44.5365 68.079 -45.1173 66.6794Z" fill="#D64000"/>
<path d="M34.5847 33.6614C34.0082 32.2618 34.0082 30.7243 34.5847 29.3206C35.1655 27.921 36.2559 26.8305 37.6555 26.2498C38.3574 25.9532 39.0927 25.8111 39.8155 25.8111C42.0465 25.8111 44.1605 27.1272 45.0671 29.3122C46.2662 32.2075 44.8916 35.5248 41.9964 36.728C40.5968 37.3087 39.0593 37.3087 37.6513 36.728C36.2517 36.1473 35.1613 35.0568 34.5806 33.6572H34.5889L34.5847 33.6614Z" fill="#D64000"/>
<path d="M13.8038 61.8038C12.024 63.5794 12.024 66.4705 13.8038 68.2461C15.5836 70.0259 18.4705 70.0259 20.2503 68.2461C21.111 67.3855 21.5873 66.2449 21.5873 65.0292C21.5873 63.8134 21.111 62.6645 20.2503 61.8122C19.3646 60.9265 18.199 60.4836 17.0333 60.4836C15.8677 60.4836 14.7021 60.9348 13.8164 61.8122L13.8038 61.8038Z" fill="#D64000"/>
<path d="M-24.2068 45.2468C-26.1328 44.7329 -27.2734 42.7525 -26.7595 40.8265C-26.5047 39.8949 -25.9114 39.1178 -25.0758 38.6331C-24.5243 38.3114 -23.906 38.1443 -23.2835 38.1443C-22.9743 38.1443 -22.6568 38.1819 -22.3476 38.2655C-21.416 38.5203 -20.6389 39.1136 -20.1542 39.9492C-19.6738 40.7848 -19.5443 41.7624 -19.7949 42.6899C-20.3088 44.6159 -22.2891 45.7606 -24.2152 45.2426H-24.2068V45.2468Z" fill="#D64000"/>
<path d="M22.3309 57.7178C21.3992 57.463 20.6222 56.8697 20.1375 56.0341C19.6571 55.1985 19.5275 54.2209 19.7782 53.2934C20.0331 52.3617 20.6263 51.5846 21.4619 51.1C22.0176 50.7783 22.6401 50.6112 23.2626 50.6112C23.5216 50.6112 23.7806 50.6363 24.0355 50.6948L24.2068 50.7407C26.1328 51.2546 27.2734 53.2433 26.7595 55.1609C26.5047 56.0926 25.9114 56.8697 25.0758 57.3543C24.2402 57.8348 23.2626 57.9685 22.3351 57.7136V57.722L22.3309 57.7178Z" fill="#D64000"/>
<path d="M-26.0576 54.9813C-26.4587 53.494 -25.6189 51.9648 -24.1776 51.4844L-24.0146 51.4384C-22.4771 51.0206 -20.8854 51.944 -20.4717 53.4856C-20.267 54.2334 -20.3715 55.0105 -20.7642 55.6832C-21.1486 56.3475 -21.7794 56.8279 -22.5189 57.0326C-23.2668 57.2374 -24.0397 57.1329 -24.7165 56.7402C-25.3808 56.3558 -25.8613 55.725 -26.066 54.9855L-26.0576 54.9771V54.9813Z" fill="#D64000"/>
<path d="M21.8087 44.29L21.6834 44.2148C21.0817 43.8221 20.6514 43.233 20.4676 42.5353C20.054 40.9895 20.9689 39.406 22.5148 38.9882C24.0481 38.5746 25.644 39.4938 26.0576 41.0354C26.4712 42.5729 25.5563 44.1647 24.0105 44.5783C23.2626 44.783 22.4897 44.6744 21.8129 44.2858V44.2942L21.8087 44.29Z" fill="#D64000"/>
<path d="M-15.4207 66.4455L-15.5042 66.529C-16.3523 67.3771 -17.7352 67.3771 -18.5833 66.529C-19.4315 65.6809 -19.4315 64.3064 -18.5833 63.4583C-17.7352 62.6101 -16.3523 62.6101 -15.5042 63.4583C-15.0906 63.8719 -14.865 64.415 -14.865 64.9957C-14.865 65.5389 -15.0614 66.0486 -15.4207 66.4455Z" fill="#D64000"/>
<path d="M18.5541 29.425C18.9677 29.8386 19.1933 30.3818 19.1933 30.9625C19.1933 31.5432 18.9635 32.0905 18.5541 32.5C17.706 33.3481 16.3231 33.3481 15.475 32.5C15.0613 32.0822 14.8357 31.5432 14.8357 30.9625C14.8357 30.3818 15.0655 29.8344 15.475 29.425C15.8927 29.0114 16.4317 28.7858 17.0124 28.7858C17.5932 28.7858 18.1405 29.0072 18.5499 29.4208V29.4292L18.5541 29.425Z" fill="#D64000"/>
<path d="M-3.73505 69.817C-3.35068 70.4813 -3.24624 71.2668 -3.4426 72.0146C-3.64731 72.7625 -4.11942 73.3808 -4.79206 73.7693C-5.46471 74.1537 -6.2418 74.2582 -6.98964 74.0618C-8.52711 73.6482 -9.44625 72.0606 -9.03682 70.5189C-8.8321 69.7711 -8.36 69.1528 -7.68736 68.7642C-7.02307 68.3798 -6.2418 68.2754 -5.48978 68.4717C-4.74193 68.6765 -4.1236 69.1486 -3.73505 69.8212V69.8129V69.817Z" fill="#D64000"/>
<path d="M3.71417 26.1997C3.3298 25.5354 3.22535 24.7499 3.42171 24.0021C3.62643 23.2542 4.09854 22.6359 4.77118 22.2474C5.21404 21.9925 5.70703 21.863 6.20838 21.863C6.46323 21.863 6.70973 21.8964 6.9604 21.9591C7.70825 22.1638 8.32658 22.6359 8.71512 23.3086C9.09949 23.9728 9.20394 24.7583 9.00757 25.5061C8.59396 27.0436 7.00636 27.9627 5.46472 27.5533C4.71687 27.3486 4.09853 26.8765 3.70999 26.2038L3.71417 26.1997Z" fill="#D64000"/>
<path d="M8.05918 68.1501L8.20958 68.2378C8.96161 68.7266 9.50056 69.4661 9.73452 70.3351C10.2484 72.2611 9.10784 74.2414 7.18182 74.7553C6.24597 75.0102 5.27669 74.8765 4.44111 74.396C3.60553 73.9156 3.00809 73.1343 2.75741 72.2026C2.50256 71.271 2.63626 70.2975 3.11672 69.4619C3.59718 68.6263 4.37844 68.0289 5.31012 67.7782C5.62764 67.6947 5.94516 67.6571 6.25432 67.6571C6.88101 67.6571 7.49516 67.82 8.055 68.1459L8.06336 68.1542L8.05918 68.1501Z" fill="#D64000"/>
<path d="M-5.30178 28.2301C-7.21944 28.744 -9.20395 27.5951 -9.72201 25.6774C-10.2359 23.7514 -9.09532 21.7711 -7.1693 21.2572C-6.86014 21.1736 -6.54679 21.136 -6.23763 21.136C-4.64167 21.136 -3.1794 22.2014 -2.74907 23.8099C-2.23519 25.7359 -3.37576 27.7163 -5.30178 28.2301Z" fill="#D64000"/>
<path d="M-17.0333 35.483C-14.5224 35.483 -12.4836 33.4483 -12.4836 30.9332C-12.4836 28.4181 -14.5182 26.3835 -17.0333 26.3835C-19.5484 26.3835 -21.5831 28.4181 -21.5831 30.9332C-21.5831 33.4483 -19.5484 35.483 -17.0333 35.483Z" fill="#D64000"/>
</svg>
